<mxfile host="Electron" agent="Mozilla/5.0 (Windows NT 10.0; Win64; x64) AppleWebKit/537.36 (KHTML, like Gecko) draw.io/27.0.5 Chrome/134.0.6998.205 Electron/35.3.0 Safari/537.36" version="27.0.5">
  <diagram name="第 1 页" id="fhKoDLNMZcnfJnXEAHpV">
    <mxGraphModel dx="826" dy="480" grid="1" gridSize="10" guides="1" tooltips="1" connect="1" arrows="1" fold="1" page="1" pageScale="1" pageWidth="827" pageHeight="1169" math="0" shadow="0">
      <root>
        <mxCell id="0" />
        <mxCell id="1" parent="0" />
        <mxCell id="vFpHQN79JdxcCxk1Jhkv-1" value="用户&lt;div&gt;&lt;br&gt;&lt;/div&gt;" style="shape=umlActor;verticalLabelPosition=bottom;verticalAlign=top;html=1;outlineConnect=0;" vertex="1" parent="1">
          <mxGeometry x="30" y="240" width="30" height="60" as="geometry" />
        </mxCell>
        <mxCell id="vFpHQN79JdxcCxk1Jhkv-2" value="" style="html=1;points=[[0,0,0,0,5],[0,1,0,0,-5],[1,0,0,0,5],[1,1,0,0,-5]];perimeter=orthogonalPerimeter;outlineConnect=0;targetShapes=umlLifeline;portConstraint=eastwest;newEdgeStyle={&quot;curved&quot;:0,&quot;rounded&quot;:0};" vertex="1" parent="1">
          <mxGeometry x="210" y="244" width="10" height="80" as="geometry" />
        </mxCell>
        <mxCell id="vFpHQN79JdxcCxk1Jhkv-3" value="借阅系统" style="html=1;whiteSpace=wrap;" vertex="1" parent="1">
          <mxGeometry x="330" y="180" width="110" height="50" as="geometry" />
        </mxCell>
        <mxCell id="vFpHQN79JdxcCxk1Jhkv-4" value="借阅书籍" style="html=1;verticalAlign=bottom;endArrow=block;curved=0;rounded=0;" edge="1" parent="1" target="vFpHQN79JdxcCxk1Jhkv-2">
          <mxGeometry width="80" relative="1" as="geometry">
            <mxPoint x="70" y="260" as="sourcePoint" />
            <mxPoint x="150" y="260" as="targetPoint" />
          </mxGeometry>
        </mxCell>
        <mxCell id="vFpHQN79JdxcCxk1Jhkv-5" value="数据库" style="html=1;whiteSpace=wrap;" vertex="1" parent="1">
          <mxGeometry x="500" y="180" width="110" height="50" as="geometry" />
        </mxCell>
        <mxCell id="vFpHQN79JdxcCxk1Jhkv-6" value="扫描机" style="html=1;whiteSpace=wrap;" vertex="1" parent="1">
          <mxGeometry x="150" y="180" width="110" height="50" as="geometry" />
        </mxCell>
        <mxCell id="vFpHQN79JdxcCxk1Jhkv-7" value="" style="html=1;points=[[0,0,0,0,5],[0,1,0,0,-5],[1,0,0,0,5],[1,1,0,0,-5]];perimeter=orthogonalPerimeter;outlineConnect=0;targetShapes=umlLifeline;portConstraint=eastwest;newEdgeStyle={&quot;curved&quot;:0,&quot;rounded&quot;:0};" vertex="1" parent="1">
          <mxGeometry x="380" y="250" width="10" height="140" as="geometry" />
        </mxCell>
        <mxCell id="vFpHQN79JdxcCxk1Jhkv-8" value="用户信息，书籍信息" style="html=1;verticalAlign=bottom;endArrow=block;curved=0;rounded=0;entryX=0;entryY=0;entryDx=0;entryDy=5;" edge="1" target="vFpHQN79JdxcCxk1Jhkv-7" parent="1" source="vFpHQN79JdxcCxk1Jhkv-2">
          <mxGeometry y="5" relative="1" as="geometry">
            <mxPoint x="310" y="255" as="sourcePoint" />
            <mxPoint as="offset" />
          </mxGeometry>
        </mxCell>
        <mxCell id="vFpHQN79JdxcCxk1Jhkv-9" value="用户信息错误" style="html=1;verticalAlign=bottom;endArrow=open;dashed=1;endSize=8;curved=0;rounded=0;exitX=0;exitY=1;exitDx=0;exitDy=-5;" edge="1" source="vFpHQN79JdxcCxk1Jhkv-7" parent="1">
          <mxGeometry relative="1" as="geometry">
            <mxPoint x="80" y="385" as="targetPoint" />
            <mxPoint as="offset" />
          </mxGeometry>
        </mxCell>
        <mxCell id="vFpHQN79JdxcCxk1Jhkv-11" value="" style="html=1;points=[[0,0,0,0,5],[0,1,0,0,-5],[1,0,0,0,5],[1,1,0,0,-5]];perimeter=orthogonalPerimeter;outlineConnect=0;targetShapes=umlLifeline;portConstraint=eastwest;newEdgeStyle={&quot;curved&quot;:0,&quot;rounded&quot;:0};" vertex="1" parent="1">
          <mxGeometry x="550" y="254" width="10" height="230" as="geometry" />
        </mxCell>
        <mxCell id="vFpHQN79JdxcCxk1Jhkv-12" value="查询书籍信息" style="html=1;verticalAlign=bottom;endArrow=block;curved=0;rounded=0;entryX=0;entryY=0;entryDx=0;entryDy=5;" edge="1" target="vFpHQN79JdxcCxk1Jhkv-11" parent="1" source="vFpHQN79JdxcCxk1Jhkv-7">
          <mxGeometry relative="1" as="geometry">
            <mxPoint x="480" y="255" as="sourcePoint" />
          </mxGeometry>
        </mxCell>
        <mxCell id="vFpHQN79JdxcCxk1Jhkv-13" value="书籍信息错误" style="html=1;verticalAlign=bottom;endArrow=open;dashed=1;endSize=8;curved=0;rounded=0;exitX=0;exitY=1;exitDx=0;exitDy=-5;" edge="1" source="vFpHQN79JdxcCxk1Jhkv-11" parent="1">
          <mxGeometry relative="1" as="geometry">
            <mxPoint x="80" y="480" as="targetPoint" />
          </mxGeometry>
        </mxCell>
        <mxCell id="vFpHQN79JdxcCxk1Jhkv-15" value="扫描错误" style="html=1;verticalAlign=bottom;endArrow=open;dashed=1;endSize=8;curved=0;rounded=0;exitX=0;exitY=1;exitDx=0;exitDy=-5;exitPerimeter=0;" edge="1" parent="1" source="vFpHQN79JdxcCxk1Jhkv-2">
          <mxGeometry relative="1" as="geometry">
            <mxPoint x="80" y="320" as="targetPoint" />
            <mxPoint x="310" y="320" as="sourcePoint" />
            <mxPoint as="offset" />
          </mxGeometry>
        </mxCell>
      </root>
    </mxGraphModel>
  </diagram>
</mxfile>
